<?xml version="1.0" encoding="UTF-8" standalone="no"?>
<!-- Created with Inkscape (http://www.inkscape.org/) -->

<svg
   width="154.95868mm"
   height="34.478024mm"
   viewBox="0 0 154.95868 34.478024"
   version="1.1"
   id="svg1"
   inkscape:version="1.4.2 (f4327f4, 2025-05-13)"
   sodipodi:docname="AiCuity_light.svg"
   xmlns:inkscape="http://www.inkscape.org/namespaces/inkscape"
   xmlns:sodipodi="http://sodipodi.sourceforge.net/DTD/sodipodi-0.dtd"
   xmlns="http://www.w3.org/2000/svg"
   xmlns:svg="http://www.w3.org/2000/svg">
  <sodipodi:namedview
     id="namedview1"
     pagecolor="#ffffff"
     bordercolor="#000000"
     borderopacity="0.25"
     inkscape:showpageshadow="2"
     inkscape:pageopacity="0.0"
     inkscape:pagecheckerboard="0"
     inkscape:deskcolor="#d1d1d1"
     inkscape:document-units="mm"
     inkscape:zoom="0.71891835"
     inkscape:cx="351.22208"
     inkscape:cy="540.39516"
     inkscape:window-width="1904"
     inkscape:window-height="993"
     inkscape:window-x="1092"
     inkscape:window-y="268"
     inkscape:window-maximized="0"
     inkscape:current-layer="layer1" />
  <defs
     id="defs1">
    <clipPath
       clipPathUnits="userSpaceOnUse"
       id="clipPath81">
      <path
         d="M 0,3195.346 H 2556.845 V 0 H 0 Z"
         transform="translate(-1009.4388,-1247.9957)"
         id="path81" />
    </clipPath>
    <linearGradient
       x1="0"
       y1="0"
       x2="1"
       y2="0"
       gradientUnits="userSpaceOnUse"
       gradientTransform="matrix(0,298.90651,-298.90651,0,1226.8432,2457.4547)"
       spreadMethod="pad"
       id="linearGradient82">
      <stop
         style="stop-opacity:1;stop-color:#57efff icc-color(sRGB IEC61966-2.1, 0.34117126, 0.9372406, 1);"
         offset="0"
         id="stop81" />
      <stop
         style="stop-opacity:1;stop-color:#7b66ff icc-color(sRGB IEC61966-2.1, 0.48234558, 0.3999939, 1);"
         offset="1"
         id="stop82" />
    </linearGradient>
    <linearGradient
       x1="0"
       y1="0"
       x2="1"
       y2="0"
       gradientUnits="userSpaceOnUse"
       gradientTransform="matrix(0,230.91786,-230.91786,0,570.74482,2463.0125)"
       spreadMethod="pad"
       id="linearGradient84">
      <stop
         style="stop-opacity:1;stop-color:#57efff icc-color(sRGB IEC61966-2.1, 0.34117126, 0.9372406, 1);"
         offset="0"
         id="stop83" />
      <stop
         style="stop-opacity:1;stop-color:#7b66ff icc-color(sRGB IEC61966-2.1, 0.48234558, 0.3999939, 1);"
         offset="1"
         id="stop84" />
    </linearGradient>
    <linearGradient
       x1="0"
       y1="0"
       x2="1"
       y2="0"
       gradientUnits="userSpaceOnUse"
       gradientTransform="matrix(363.09308,363.09308,-363.09308,363.09308,-50.060633,2408.0213)"
       spreadMethod="pad"
       id="linearGradient88">
      <stop
         style="stop-opacity:1;stop-color:#57efff icc-color(sRGB IEC61966-2.1, 0.34117126, 0.9372406, 1);"
         offset="0"
         id="stop85" />
      <stop
         style="stop-opacity:1;stop-color:#57efff icc-color(sRGB IEC61966-2.1, 0.34117126, 0.9372406, 1);"
         offset="0.00000008"
         id="stop86" />
      <stop
         style="stop-opacity:1;stop-color:#7b66ff icc-color(sRGB IEC61966-2.1, 0.48234558, 0.3999939, 1);"
         offset="1"
         id="stop87" />
      <stop
         style="stop-opacity:1;stop-color:#7b66ff icc-color(sRGB IEC61966-2.1, 0.48234558, 0.3999939, 1);"
         offset="1"
         id="stop88" />
    </linearGradient>
    <clipPath
       clipPathUnits="userSpaceOnUse"
       id="clipPath90">
      <path
         d="M 0,3195.346 H 2556.845 V 0 H 0 Z"
         transform="translate(-369.95311,-1202.009)"
         id="path90" />
    </clipPath>
  </defs>
  <g
     id="g20"
     transform="matrix(0.09848465,0,0,0.09848465,8.4103552,-236.98123)">
    <path
       id="path80"
       d="m 0,0 h -27.605 c -8.465,43.109 -64.674,47.278 -85.489,10.635 -12.753,-22.45 -12.283,-61.059 2.428,-82.547 22.076,-32.244 74.378,-27.952 83.061,12.454 H 0 c -7.484,-60.511 -88.28,-75.639 -126.892,-33.989 -24.104,26.001 -27.583,73.379 -15.13,105.405 C -115.884,79.181 -10.366,74.229 0,0"
       style="fill:#cc3bfe;fill-opacity:1;fill-rule:nonzero;stroke:none"
       transform="matrix(1.3333333,0,0,-1.3333333,928.84657,2541.0389)"
       clip-path="url(#clipPath81)" />
    <path
       id="path82"
       d="m 1164.9122,2457.8065 c -23.94,3.9066 -19.5973,45.0133 9.232,39.016 v 0 c 22.0947,-4.596 18.376,-39.3667 -5.032,-39.368 v 0 c -1.336,0 -2.736,0.1133 -4.2,0.352 m 73.964,25.1906 v 41.0547 h -25.4813 v 26.896 h 25.4813 v 106.884 c 0,5.7547 7.6654,21.9667 12.044,26.1787 v 0 c 5.584,5.3746 19.192,10.5533 26.9,11.3213 v 0 c 4.736,0.4733 30.7027,0.5533 31.4854,-3.4547 v 0 l -3.1427,-27.7533 -1.3973,-0.9787 c -9.212,2.1027 -24.0507,2.92 -28.768,-7.044 v 0 c -0.5587,-1.1786 -3.1454,-10.3186 -3.1454,-11.0106 v 0 -95.5574 c 1.0374,-0.376 1.692,1.4147 2.1227,1.4147 v 0 h 31.8533 v -26.896 h -33.976 v -38.932 c 0,-0.3 2.124,-1.612 1.416,-2.1227 v 0 z m 213.0574,41.0547 -43.872,130.2493 -41.776,-130.2493 h -38.2227 l 60.1547,171.1253 c -2.9707,15.9467 -12.6507,30.2974 -30.112,30.9267 v 0 c -1.1014,0.04 -2.8707,-0.2933 -4.7734,-0.6253 v 0 c -3.4533,-0.604 -7.3453,-1.2094 -8.4466,0.416 v 0 l -5.5,27.484 c 48.6866,12.044 70.0106,-13.6427 86.3826,-54.468 v 0 l 62.264,-174.8587 z m -300.828,169.8787 h 35.392 v -169.8787 h -35.392 z m -76.4467,-169.8787 c -0.376,1.036 1.416,1.692 1.416,2.1227 v 0 92.0186 c 0,3.7067 -2.1907,15.2347 -3.2493,19.4 v 0 c -9.836,38.7254 -68.804,38.384 -71.768,-3.8413 v 0 c 0.676,-34.5107 -2.37203,-68.8893 -1.5107,-103.4107 v 0 c 0.06,-2.4146 0.4613,-4.1626 1.4987,-6.2893 v 0 h -35.39203 v 119.6227 c 0,48.0986 62.74403,68.912 97.00663,40.38 v 0 l 16.2467,-19.852 v 29.728 h 32.56 v -169.8787 z"
       style="fill:url(#linearGradient82);stroke:none;stroke-width:1.33333" />
    <path
       id="path84"
       d="m 680.72024,2463.5131 c -20.68,3.8187 -20.84533,38.1174 6.80134,36.5347 v 0 c 24.912,-1.424 22.93466,-37.0307 -1.57467,-37.0347 v 0 c -1.64267,0 -3.38267,0.1587 -5.22667,0.5 m -164.55999,5.3054 -79.964,225.112 h 38.22266 l 20.05467,-62.0467 85.924,-0.045 22.14,62.092 h 36.09866 l -81.55599,-226.5934 z m 21.256,31.152 34.684,103.3573 h -67.952 z m 129.53333,193.96 h 35.392 v -169.8787 h -35.392 z"
       style="fill:url(#linearGradient84);stroke:none;stroke-width:1.33333" />
    <path
       id="path88"
       d="m -44.083739,2407.8105 c -11.166667,3.32 -1.726667,23.324 -7.834667,30.3266 v 0 h -26.897332 c -3.197334,0 -7.422667,7.0907 -6.436,10.5534 v 0 l 0.794666,288.1293 9.856,5.7173 188.997332,0.7014 c 6.18533,7.0813 12.308,12.1866 22.316,8.104 v 0 c 3.79333,-1.548 6.33866,-7.2787 9.89866,-8.5027 v 0 c 2.97734,-1.0213 7.71067,-0.532 11.00934,-1.7293 v 0 l 186.14132,-0.7254 4.312,-9.8453 -1.13866,-287.792 c -0.44667,-1.048 -3.34134,-4.6107 -3.884,-4.6107 v 0 h -31.852 c -0.98133,-7.0986 3.25333,-28.3333 -5.22933,-30.8693 v 0 c -5.608,-1.676 -39.90134,-0.816 -47.91734,-0.3333 v 0 c -47.90933,2.8813 -95.31466,21.9213 -127.35066,58.076 v 0 c -27.74267,-34.588 -72.618665,-52.2947 -116.090664,-56.5947 v 0 c -8.1906666,-0.8093 -25.751999,-2.14 -40.065332,-2.14 v 0 c -7.914667,0 -14.838667,0.408 -18.629333,1.5347 m 176.171999,87.0186 c 8.564,-0.2533 8.77466,-8.3946 12.89066,-14.1 v 0 c 31.88934,-44.2053 96.40667,-56.6386 147.816,-53.916 v 0 254.8187 c -44.41333,-0.6747 -96.408,1.9867 -135.46933,25.2067 v 0 c -10.424,6.1973 -18.224,15.6826 -27.84533,22.824 v 0 c -16.19067,-18.032 -38.692003,-31.5787 -61.804002,-38.8 v 0 c -32.302666,-10.0947 -66.0906651,-6.8494 -98.926664,-9.3667 v 0 l -0.264,-1.96 1.46,-252.1027 c 48.829332,-2.8453 115.16533,9.2054 146.477326,50.4667 v 0 c 5.48934,7.2333 5.59867,16.9373 15.22934,16.936 v 0 c 0.14266,0 0.28933,0 0.436,-0.013 m -198.870665,-36.164 2.061333,-1.78 14.926666,1.072 v 238.5386 c 0,0.972 4.526667,4.1574 6.305333,4.3134 v 0 c 6.613333,0.584 14.684,0.136 22.806666,-0.3147 v 0 c 6.84,-0.3773 13.7146667,-0.756 19.7866666,-0.5187 v 0 c 29.4573324,1.1587 60.6359984,5.9854 87.2706644,18.9067 v 0 c 1.642667,0.796 5.32,1.828 5.396,3.8027 v 0 H -66.782405 Z m 371.577325,241.344 c 1.95333,-0.3707 3.292,-1.0334 4.20667,-2.872 v 0 l 2.19733,-239.1734 h 19.81866 v 264.728 H 168.21759 l 12.368,-6.7413 c 25.67333,-8.8107 53.14,-14.4747 80.372,-15.8947 v 0 c 5.22533,-0.272 11.676,0.033 18.23733,0.336 v 0 c 4.764,0.2214 9.58667,0.4414 14.04533,0.4414 v 0 c 4.324,0 8.30534,-0.208 11.55467,-0.824"
       style="fill:url(#linearGradient88);stroke:none;stroke-width:1.33333" />
    <path
       id="path89"
       d="M 0,0 C -0.16,1.534 -0.065,2.764 0.577,4.201 2.189,7.814 13.623,20.744 17.015,24.924 37.403,50.048 58.89,74.394 80.176,98.734 82.851,99.6 80.185,93.53 79.911,92.622 73.566,71.593 65.272,51.11 58.501,30.219 c -0.012,-0.396 2.4,-1.552 2.549,-1.552 H 97.681 L 21.587,-65.668 19.121,-65.826 18.505,-61.559 38.223,0 Z"
       style="fill:#ffd100;fill-opacity:1;fill-rule:nonzero;stroke:none"
       transform="matrix(1.3333333,0,0,-1.3333333,76.19907,2602.3545)"
       clip-path="url(#clipPath90)" />
  </g>
  <g
     inkscape:label="Layer 1"
     inkscape:groupmode="layer"
     id="layer1"
     transform="translate(-12.094987,-5.61389)"
     style="opacity:0" />
</svg>
