<?xml version="1.0" encoding="UTF-8" standalone="no"?>
<!-- Created with Inkscape (http://www.inkscape.org/) -->

<svg
   width="45.440952mm"
   height="53.312798mm"
   viewBox="0 0 45.440952 53.312798"
   version="1.1"
   id="svg1"
   inkscape:version="1.4.2 (f4327f4, 2025-05-13)"
   sodipodi:docname="book_closed_dark.svg"
   xmlns:inkscape="http://www.inkscape.org/namespaces/inkscape"
   xmlns:sodipodi="http://sodipodi.sourceforge.net/DTD/sodipodi-0.dtd"
   xmlns="http://www.w3.org/2000/svg"
   xmlns:svg="http://www.w3.org/2000/svg">
  <sodipodi:namedview
     id="namedview1"
     pagecolor="#ffffff"
     bordercolor="#000000"
     borderopacity="0.25"
     inkscape:showpageshadow="2"
     inkscape:pageopacity="0.0"
     inkscape:pagecheckerboard="0"
     inkscape:deskcolor="#d1d1d1"
     inkscape:document-units="mm"
     inkscape:zoom="0.71891835"
     inkscape:cx="212.81972"
     inkscape:cy="153.00764"
     inkscape:window-width="933"
     inkscape:window-height="1032"
     inkscape:window-x="1494"
     inkscape:window-y="166"
     inkscape:window-maximized="0"
     inkscape:current-layer="layer1" />
  <defs
     id="defs1">
    <linearGradient
       x1="0"
       y1="0"
       x2="1"
       y2="0"
       gradientUnits="userSpaceOnUse"
       gradientTransform="matrix(135.09117,-135.09117,-135.09117,-135.09117,520.41925,2308.5217)"
       spreadMethod="pad"
       id="linearGradient24">
      <stop
         style="stop-opacity:1;stop-color:#57efff icc-color(sRGB IEC61966-2.1, 0.34117126, 0.9372406, 1);"
         offset="0"
         id="stop21" />
      <stop
         style="stop-opacity:1;stop-color:#57efff icc-color(sRGB IEC61966-2.1, 0.34117126, 0.9372406, 1);"
         offset="0.00000008"
         id="stop22" />
      <stop
         style="stop-opacity:1;stop-color:#7b66ff icc-color(sRGB IEC61966-2.1, 0.48234558, 0.3999939, 1);"
         offset="1"
         id="stop23" />
      <stop
         style="stop-opacity:1;stop-color:#7b66ff icc-color(sRGB IEC61966-2.1, 0.48234558, 0.3999939, 1);"
         offset="1"
         id="stop24" />
    </linearGradient>
    <clipPath
       clipPathUnits="userSpaceOnUse"
       id="clipPath30">
      <path
         d="M 0,3195.346 H 2556.845 V 0 H 0 Z"
         transform="translate(-606.61511,-2292.4649)"
         id="path30" />
    </clipPath>
  </defs>
  <g
     id="g15"
     transform="matrix(0.26458333,0,0,0.26458333,-183.95561,-310.14355)">
    <path
       id="path24"
       d="m 521.46,2307.034 -0.011,-130.606 c 1.165,-8.727 7.605,-10.666 15.343,-11.131 v 0 c 11.974,-0.72 24.225,0.577 36.101,0.651 v 0 c 8.329,0.051 16.719,-0.06 25.112,-0.173 v 0 c 13.764,-0.184 27.538,-0.369 41.073,0.173 v 0 c 0.88,0.035 1.902,-0.036 2.961,-0.107 v 0 c 3.475,-0.232 7.353,-0.465 7.935,3.052 v 0 l 0.284,141.761 c -0.053,2.169 -0.722,4.715 -3.001,5.421 v 0 l -116.315,0.128 c -4.165,-0.939 -8.953,-4.763 -9.482,-9.169 m 7.835,-4.226 c 0,1.435 2.456,5.114 3.911,5.114 v 0 H 641.51 c 0.184,0 0.463,0.762 0.903,0.602 v 0 -117.329 H 529.295 Z m -0.002,-120.035 113.12,0.6 v -10.229 h -106.8 c -4.829,0 -7.212,5.405 -6.32,9.629"
       transform="matrix(1.3333333,0,0,-1.3333333,0,4260.4667)"
       style="fill:url(#linearGradient24);stroke:none" />
    <path
       id="path29"
       d="m 0,0 -12.031,-38.499 21.972,-0.606 0.883,-0.892 -44.509,-54.464 c -0.561,3.062 1.025,6.704 1.971,9.754 3.05,9.838 6.95,19.52 10.054,29.348 l -22.262,0.01 0.127,1.976 c 12.399,14.741 23.764,30.369 35.993,45.237 1.662,2.02 4.05,5.154 5.756,6.878 C -1.42,-0.625 -1.184,0.274 0,0"
       style="fill:#fff200;fill-opacity:1;fill-rule:nonzero;stroke:none"
       transform="matrix(1.3333333,0,0,-1.3333333,808.82013,1203.8469)"
       clip-path="url(#clipPath30)" />
  </g>
  <g
     inkscape:label="Layer 1"
     inkscape:groupmode="layer"
     id="layer1"
     transform="translate(-48.683323,-107.95)"
     style="opacity:0" />
</svg>
