<?xml version="1.0" encoding="UTF-8"?>
<svg id="Layer_1" xmlns="http://www.w3.org/2000/svg" xmlns:xlink="http://www.w3.org/1999/xlink" version="1.1" viewBox="0 0 171.2 200.9">
  <!-- Generator: Adobe Illustrator 29.5.1, SVG Export Plug-In . SVG Version: 2.1.0 Build 141)  -->
  <defs>
    <style>
      .st0 {
        fill: #ffd100;
      }

      .st1 {
        fill: url(#linear-gradient);
      }
    </style>
    <linearGradient id="linear-gradient" x1="-1.3" y1="10.5" x2="178" y2="189.8" gradientUnits="userSpaceOnUse">
      <stop offset="0" stop-color="#57efff"/>
      <stop offset="1" stop-color="#7b66ff"/>
    </linearGradient>
  </defs>
  <polygon class="st0" points="90.5 82.3 120.6 82.3 71.2 148.9 80.6 103.3 52.6 103.3 98.5 35.3 90.5 82.3"/>
  <path class="st1" d="M12.6.7l154.6.2c3,.9,3.9,4.1,4,6.8l-.4,188.1c-1,5.8-9.5,3.5-14.5,3.7-29,1.1-58.8-.2-88,0-15.8,0-32.1,1.7-48,.8-10.3-.6-18.8-3-20.4-14V12.2C.7,6.6,7.1,1.8,12.6.7ZM160.8,167.7V10.3c-.6-.2-1,.8-1.2.8H15.6c-1.9,0-5.2,4.6-5.2,6.4v150.2h150.4ZM160.8,177.6l-150.4.8c-1.2,5.3,2,12.1,8.4,12.1h142v-12.9Z"/>
</svg>