<?xml version="1.0" encoding="UTF-8"?>
<svg id="Layer_1" xmlns="http://www.w3.org/2000/svg" xmlns:xlink="http://www.w3.org/1999/xlink" version="1.1" viewBox="0 0 171.2 200.9">
  <!-- Generator: Adobe Illustrator 29.5.1, SVG Export Plug-In . SVG Version: 2.1.0 Build 141)  -->
  <defs>
    <style>
      .st0 {
        fill: url(#linear-gradient1);
        stroke: url(#linear-gradient2);
        stroke-miterlimit: 10;
      }

      .st1 {
        fill: url(#linear-gradient);
      }
    </style>
    <linearGradient id="linear-gradient" x1="-1.4" y1="10.2" x2="178.2" y2="189.8" gradientUnits="userSpaceOnUse">
      <stop offset="0" stop-color="#57efff"/>
      <stop offset="1" stop-color="#7b66ff"/>
    </linearGradient>
    <linearGradient id="linear-gradient1" x1="49" y1="126.6" x2="125.7" y2="49.9" gradientUnits="userSpaceOnUse">
      <stop offset="0" stop-color="#008700"/>
      <stop offset="1" stop-color="#01ff00"/>
    </linearGradient>
    <linearGradient id="linear-gradient2" x1="42.2" y1="89.4" x2="132.4" y2="89.4" xlink:href="#linear-gradient"/>
  </defs>
  <path class="st1" d="M12.6,0l154.6.2c3,.9,3.9,4.3,4,7.2l-.4,188.4c-1,6.1-9.5,3.7-14.5,3.9-29,1.2-58.8-.2-88,0-15.8,0-32.1,1.8-48,.9-10.3-.6-18.8-3.2-20.4-14.8V12.2C.7,6.3,7.1,1.2,12.6,0ZM160.8,166.2V10.2c-.6-.2-1,.8-1.2.8H15.6c-1.9,0-5.2,4.9-5.2,6.8v148.4h150.4ZM160.8,176.6l-150.4.8c-1.2,5.6,2,12.8,8.4,12.8h142v-13.6Z"/>
  <path id="UVJZe9" class="st0" d="M60.2,115.6l-2.4-3.8c-2.4-4.5-3.3-9.6-4-14.6-.1-.2-1.3,0-1.6-.1-3.7-.4-7.4-2.6-8.5-6.3s-1.2-9.9-1-12.7c.3-4.3,5.2-5.8,8.8-4.4,0-.4,0-.7,0-1.1-.4-6.2-1.4-12.6-1.6-18.8-.4-10.3,10.7-11.7,18.6-12.7,12.6-1.6,27.4-1.7,40,.1,7.5,1.1,17.3,3.1,16.2,12.9l-1.7,19.6c2.8-1.2,7.6-.6,8.7,2.7s.3,2.5.3,3.6c0,2.9-.3,8.9-1.3,11.5-1.5,3.9-5.9,5.7-9.8,5.6-.6,5.3-1.7,10.6-4.3,15.3s-1.4,2.1-1.9,3.2h2.6c.8-.6,1.2-3.6,2-3.9,1.6,0,3.2,0,4.7,0s1.9-.6,2.7.9,1.9,3.9,2.4,5.4,0,2-.5,3.1-1.3,3.5-2,4.5-.5.7-1,.8c-1,.2-4.4.1-5.5,0s-.9-.2-1.2-.6-2-3.8-2-4v-3.2h-5.1c0,0-.7.6-.6.8-.2,3.3.3,6.8,0,10s-1.2,2.8-2.4,3.8c-8.1,6.5-25.3,6.4-34.9,3.6-3.1-.9-9.7-3.5-10.2-7.2v-10.7c-.5-.7-.7-.4-1.2-.4-1.5,0-3,0-4.6-.1v3.6c0,.2-1.7,3.3-1.9,3.6-.4.5-.8.7-1.4.7-1,0-4.5.1-5.3,0s-.7-.4-.9-.8c-.5-.9-2.6-5.8-2.7-6.7s.9-2.7,1.2-3.5,1.4-3.5,2-3.6c1.7,0,3.5,0,5.2,0,.6,0,.7-.2,1.4,0,1,.3,1.2,3,2,3.8h2.8ZM85.4,43.3c-7.6.1-16.3.6-23.7,2.3-4.8,1.1-8.7,2.7-8.5,8.3.5,12.6,2.6,25.5,3.3,38.1,1.2,11,2.9,21.4,13.1,27.6,8.7,5.3,26,5.6,34.9.6,10.4-5.8,12.5-16.2,13.8-27.1,1.3-11.4,2.2-23.2,3-34.6.2-3,1-7.1-.9-9.6s-10-4.1-13.8-4.6c-6.9-.9-14.2-1.1-21.1-1ZM51.8,77.1c-1.5-.5-3.4-.9-5,0s-.8,3.2-.8,4.6c0,2.4,0,5.3.5,7.6.6,3.3,3.8,4.2,6.7,4.5l-1.5-16.6ZM121.1,93.7c4.1,0,6.5-1.5,7-5.7.3-2.2.4-5,.5-7.2s0-2,0-2.6c-.3-2-4.8-1.8-6-.8l-1.5,16.4ZM53.8,114.8h-3.2s-1.7,4-1.7,4c0,.4,1.8,4.5,2,4.6h2.7c.1,0,.8-1.3.9-1.5.3-.8.3-3.4.2-4.3s-.7-1.9-.9-2.8ZM124,123.4l1.8-4.3c-.4-1.4-1.1-2.9-1.7-4.2h-2.8c-.1,0-1.3,2.1-1.3,2.4-.1.6,0,4,0,4.6s.9,1.6,1,1.6h3ZM108,121.8c-3.9,2.8-8.5,4.2-13.3,4.8-8,.9-18.9.4-26-3.6-.6-.4-1.2-.9-1.9-1.1v7.3c0,.7,1.8,2.1,2.4,2.4,7.9,5.1,25.5,5.2,33.9,1.4,1-.4,4.9-2.6,4.9-3.7v-7.4ZM69.4,56.2c0-.6-.9-1.3-1.4-1.3s-1.6.6-1.6,1.2v3.2h-3.7c-.5,0-1,1.2-.9,1.7s.8,1.3,1.2,1.3h3.4v2.9c0,0,.4.6.5.7.7.6,1.8.4,2.2-.4s.3-.6.3-.6v-2.7h8.9v3.1c0,.5,1.1,1,1.6.9s1.3-.6,1.3-1.1v-2.9h8.7c.1,0,.3-.1.4-.1v2.9c0,.5.9,1.2,1.4,1.2s1.6-.6,1.6-1.1v-2.9h9.5c0-.1,0,3.1,0,3.1,0,.4,1,1,1.4,1s1.4-.5,1.4-1v-3.2c1.4.1,3.2.3,4.6.1s2.3-1.3,1.4-2.5-.6-.5-.6-.5h-5.3v-3.4s-.5-.6-.6-.7c-.5-.3-1.2-.3-1.7,0s-.6.6-.6.7v3.3h-9.5v-3.2c0-.2-.5-.8-.7-.9-.9-.6-2.3.2-2.3,1.2v2.9h-8.9l-.2-.2v-3.1c0-.5-1-1-1.4-1s-1.4.7-1.4,1v3.1l-.2.2h-8.7v-3.1ZM77.3,106.6h19.9c2.7-.7,1.1-3.5-1-3.6h-18c-1.9.4-3.1,2.7-.9,3.6ZM83.5,96.4c1.8.2,5.9.2,7.7,0,2.3-.3,2.7-2.5.5-3.2-2.6.3-6.2-.4-8.7,0s-2,2.9.5,3.2ZM79.8,79.6c-.1,3.5-3,6.7-6.4,7.3-3.5.6-6.9-1.4-8.3-4.6-.2-.5-.7-2.6-.7-2.7s-.8-.1-1-.4c-.9-.8-.5-2.5.8-2.6h16.1c1.6.5,1.4,3-.4,3ZM76.3,79.7c-2.5.3-5.9,0-8.5,0s-.2-.3-.2,0c0,1.1,1,2.7,1.8,3.3,3,2.3,6.8,0,7.3-3.5-.2,0-.3.1-.4.1ZM94.9,79.6c-1.9,0-2.2-2.5-.4-3h16.2c.8.6,1.1,1.8.5,2.5s-.9.5-1,.6,0,.7-.1,1c-.9,3.9-4.5,6.9-8.6,6.2-3.5-.6-6.4-3.8-6.5-7.3ZM107.1,79.6h-9.3c.7,5.7,8.5,5.8,9.3,0Z"/>
</svg>