<?xml version="1.0" encoding="UTF-8"?>
<svg id="Layer_1" xmlns="http://www.w3.org/2000/svg" xmlns:xlink="http://www.w3.org/1999/xlink" version="1.1" viewBox="0 0 171.2 200.9">
  <!-- Generator: Adobe Illustrator 29.5.1, SVG Export Plug-In . SVG Version: 2.1.0 Build 141)  -->
  <defs>
    <style>
      .st0 {
        fill: url(#linear-gradient2);
      }

      .st1 {
        fill: url(#linear-gradient1);
      }

      .st2 {
        fill: url(#linear-gradient);
      }
    </style>
    <linearGradient id="linear-gradient" x1="-1.4" y1="10.2" x2="178.2" y2="189.8" gradientUnits="userSpaceOnUse">
      <stop offset="0" stop-color="#57efff"/>
      <stop offset="1" stop-color="#7b66ff"/>
    </linearGradient>
    <linearGradient id="linear-gradient1" x1="51.9" y1="111.1" x2="131.1" y2="65.4" gradientUnits="userSpaceOnUse">
      <stop offset="0" stop-color="#57efff"/>
      <stop offset="1" stop-color="#cc3bfe"/>
    </linearGradient>
    <linearGradient id="linear-gradient2" x1="94.1" y1="138.4" x2="101.1" y2="134.4" xlink:href="#linear-gradient1"/>
  </defs>
  <path class="st2" d="M12.6,0l154.6.2c3,.9,3.9,4.3,4,7.2l-.4,188.4c-1,6.1-9.5,3.7-14.5,3.9-29,1.2-58.8-.2-88,0-15.8,0-32.1,1.8-48,.9-10.3-.6-18.8-3.2-20.4-14.8V12.2C.7,6.3,7.1,1.2,12.6,0ZM160.8,166.2V10.2c-.6-.2-1,.8-1.2.8H15.6c-1.9,0-5.2,4.9-5.2,6.8v148.4h150.4ZM160.8,176.6l-150.4.8c-1.2,5.6,2,12.8,8.4,12.8h142v-13.6Z"/>
  <g id="_x30_W6zSs">
    <g>
      <path class="st1" d="M108.4,57h13.1c1.2,0,2.1,1.7,1.5,2.8-11.5,15.5-23.5,30.5-35.2,45.8v24.7c-.1,0,0,.4,0,.4h12.3c.3,0,4.3,2.1,4.7,2.5,1.5,1.1.9,3.1-.8,3.4h-36.2c-1.9-.1-2.8-2.2-1.1-3.4s3-1.8,3.9-2.2c2.1-.9,8.3-.4,10.9-.3s1.4,0,2,0,.3,0,.4-.2v-24.8l-35.6-45.5c-1-1.4-.2-3.1,1.5-3.2h54.1s9.4-15.8,9.4-15.8c1.2-2.6,4.7-1.3,3.7,1.4l-8.5,14.3ZM101.6,60.8h-48l32.2,41,31.7-41h-11.5l-6.4,10.8c0,.2.8,1.3,1,1.7,2.1,4,.6,8.9-3.3,11.1s-4.3,1.3-6.5.8l-3.9,4.2c-.6.6-1.6.2-1.7-.6-.3-1,2.5-4.9,2.4-5.4-5.9-5.6-1.3-15.8,6.9-14.6.7.1,1.4.4,2.1.5l5.1-8.4ZM92.3,72.5c-5.5.8-4.8,9.9,1.5,9.3,5.9-.6,5.1-10.1-1.5-9.3ZM102.3,136.3h-9.3c0,.1,9.3.1,9.3.1h0Z"/>
      <rect class="st0" x="93" y="136.3" width="9.3" height=".1"/>
    </g>
  </g>
</svg>