<?xml version="1.0" encoding="UTF-8"?>
<svg id="Layer_1" xmlns="http://www.w3.org/2000/svg" xmlns:xlink="http://www.w3.org/1999/xlink" version="1.1" viewBox="0 0 1180.1 262.6">
  <!-- Generator: Adobe Illustrator 29.5.1, SVG Export Plug-In . SVG Version: 2.1.0 Build 141)  -->
  <defs>
    <style>
      .st0 {
        fill: #ffd100;
      }

      .st1 {
        fill: url(#linear-gradient2);
      }

      .st2 {
        fill: url(#linear-gradient1);
      }

      .st3 {
        fill: url(#linear-gradient);
      }

      .st4 {
        fill: #cc3bfe;
      }
    </style>
    <linearGradient id="linear-gradient" x1="984.2" y1="38.4" x2="984.2" y2="262.6" gradientUnits="userSpaceOnUse">
      <stop offset="0" stop-color="#57efff"/>
      <stop offset="1" stop-color="#7b66ff"/>
    </linearGradient>
    <linearGradient id="linear-gradient1" x1="492.1" y1="42.6" x2="492.1" y2="215.7" xlink:href="#linear-gradient"/>
    <linearGradient id="linear-gradient2" x1="26.5" y1="1.3" x2="298.8" y2="273.6" gradientUnits="userSpaceOnUse">
      <stop offset="0" stop-color="#57efff"/>
      <stop offset="1" stop-color="#7b66ff"/>
    </linearGradient>
  </defs>
  <path class="st4" d="M760.7,101.1h-27.6c-8.5-43.1-64.7-47.3-85.5-10.6-12.8,22.5-12.3,61.1,2.4,82.5,22.1,32.2,74.4,28,83.1-12.5h27.6c-7.5,60.5-88.3,75.6-126.9,34-24.1-26-27.6-73.4-15.1-105.4,26.1-67.2,131.7-62.3,142,12Z"/>
  <path class="st3" d="M1088.8,88.3l31.3,97.7,32.9-97.7h27.1l-46.7,131.1c-12.3,30.6-28.3,49.9-64.8,40.9l4.1-20.6c1.3-1.9,7.6.2,9.9.2,13.1-.5,20.4-11.2,22.6-23.2l-45.1-128.3h28.7ZM788.3,88.3v89.7c0,36.1,47.1,51.7,72.8,30.3l12.2-14.9v22.3h24.4v-127.4h-27.6c-.3.8,1.1,1.3,1.1,1.6v69c0,2.8-1.6,11.4-2.4,14.6-7.4,29-51.6,28.8-53.8-2.9.5-25.9-1.8-51.7-1.1-77.6s.3-3.1,1.1-4.7h-26.5ZM993.2,57.5v30.8h-19.1v20.2h19.1v80.2c0,4.3,5.7,16.5,9,19.6s14.4,7.9,20.2,8.5,23,.4,23.6-2.6l-2.4-20.8-1-.7c-6.9,1.6-18,2.2-21.6-5.3-.4-.9-2.4-7.7-2.4-8.3v-71.7c.8-.3,1.3,1.1,1.6,1.1h23.9v-20.2h-25.5v-29.2c0-.2,1.6-1.2,1.1-1.6h-26.5ZM927.4,88.3v127.4h26.5v-127.4h-26.5ZM944.7,67.9c17.5-3.6,13.4-32.6-6.9-29.3-18,2.9-14.7,33.8,6.9,29.3Z"/>
  <path class="st2" d="M391.2,215.7l60-168.8,30.7-1.1,61.2,169.9h-27.1l-16.6-46.6h-64.4s-15,46.6-15,46.6h-28.7ZM493.1,147.8l-26-77.5-25,77.5h51ZM564.3,88.3v127.4h26.5v-127.4h-26.5ZM579.7,70.3c19.9-1.1,16.9-31.5-5.1-27.4-15.5,2.9-15.6,28.6,5.1,27.4Z"/>
  <path class="st1" d="M297.4,23.9h23.9c.4,0,2.6,2.7,2.9,3.5l.9,215.8-3.2,7.4-139.6.5c-2.5.9-6,.5-8.3,1.3s-4.6,5.2-7.4,6.4c-7.5,3.1-12.1-.8-16.7-6.1l-141.7-.5-7.4-4.3L.1,31.8c-.7-2.6,2.4-7.9,4.8-7.9h20.2c4.6-5.3-2.5-20.3,5.9-22.7s34.5-.5,44,.5c32.6,3.2,66.3,16.5,87.1,42.4C186.1,16.9,221.7,2.7,257.6.5s31.7-1,35.9.3c6.4,1.9,3.2,17.8,3.9,23.2ZM283.6,206.5V15.4c-38.6-2-86.9,7.3-110.9,40.4-3.1,4.3-3.2,10.4-9.7,10.6-7.5.2-7.6-7.2-11.7-12.7C127.9,22.8,78.1,13.7,41.5,15.9l-1.1,189.1.2,1.5c24.6,1.9,50-.5,74.2,7,17.3,5.4,34.2,15.6,46.4,29.1,7.2-5.4,13.1-12.5,20.9-17.1,29.3-17.4,68.3-19.4,101.6-18.9ZM26.7,38.8l-11.2-.8-1.5,1.3v198h118.9c0-1.5-2.8-2.3-4-2.9-20-9.7-43.4-13.3-65.5-14.2-10-.4-22.8,1.4-31.9.6-1.3-.1-4.7-2.5-4.7-3.2V38.8ZM312.3,38.8h-14.9l-1.6,179.4c-.7,1.4-1.7,1.9-3.2,2.2-8.4,1.6-23.4-.5-32.9,0-20.4,1.1-41,5.3-60.3,11.9l-9.3,5.1h122.1V38.8Z"/>
  <path class="st0" d="M121.2,147.1c-.2-1.5,0-2.8.6-4.2,1.6-3.6,13-16.5,16.4-20.7,20.4-25.1,41.9-49.5,63.2-73.8,2.7-.9,0,5.2-.3,6.1-6.3,21-14.6,41.5-21.4,62.4,0,.4,2.4,1.6,2.5,1.6h36.6l-76.1,94.3-2.5.2-.6-4.3,19.7-61.6h-38.2Z"/>
</svg>