<?xml version="1.0" encoding="UTF-8"?>
<svg id="Layer_1" xmlns="http://www.w3.org/2000/svg" xmlns:xlink="http://www.w3.org/1999/xlink" version="1.1" viewBox="0 0 705.8 719.3">
  <!-- Generator: Adobe Illustrator 29.5.1, SVG Export Plug-In . SVG Version: 2.1.0 Build 141)  -->
  <defs>
    <style>
      .st0 {
        fill: none;
      }

      .st1 {
        fill: #fff;
      }

      .st2 {
        clip-path: url(#clippath);
      }
    </style>
    <clipPath id="clippath">
      <rect class="st0" width="705.8" height="705.8"/>
    </clipPath>
  </defs>
  <g class="st2">
    <path class="st1" d="M564.9,494l-18.2-18.2c-33.9-33.8-53.4-79.1-54.9-127.2v-1.4c-3.2-73.8-64.5-132.5-138.3-132.9-79.1,0-142.9,65.6-139,145.4,3.2,68.8,57,125.1,125.4,131.5h1.8c56.7,4.6,109.4,29.2,149.6,69.5l3.6,3.6c-39.9,27.1-88,42.8-140,43.1-140.8,1.1-256.2-113.7-256.6-254.4,0-140.8,114-254.8,254.4-254.8s255.1,115.1,254.4,255.8c-.4,52-15.7,99.8-42.4,140M700.7,292C676.1,145.2,560.6,29.7,413.8,5.1,171.5-35.5-35.5,171.5,5.1,413.8c24.6,146.8,140,262.3,286.8,286.8,242.3,40.6,449.3-166.4,408.7-408.7"/>
  </g>
</svg>