<?xml version="1.0" encoding="UTF-8" standalone="no"?>
<!-- Created with Inkscape (http://www.inkscape.org/) -->

<svg
   width="55.567692mm"
   height="52.242153mm"
   viewBox="0 0 55.567692 52.242153"
   version="1.1"
   id="svg1"
   inkscape:version="1.4.2 (f4327f4, 2025-05-13)"
   sodipodi:docname="tachometer_low_light.svg"
   xmlns:inkscape="http://www.inkscape.org/namespaces/inkscape"
   xmlns:sodipodi="http://sodipodi.sourceforge.net/DTD/sodipodi-0.dtd"
   xmlns="http://www.w3.org/2000/svg"
   xmlns:svg="http://www.w3.org/2000/svg">
  <sodipodi:namedview
     id="namedview1"
     pagecolor="#ffffff"
     bordercolor="#000000"
     borderopacity="0.25"
     inkscape:showpageshadow="2"
     inkscape:pageopacity="0.0"
     inkscape:pagecheckerboard="0"
     inkscape:deskcolor="#d1d1d1"
     inkscape:document-units="mm"
     inkscape:zoom="0.71891835"
     inkscape:cx="274.71826"
     inkscape:cy="24.342125"
     inkscape:window-width="1904"
     inkscape:window-height="993"
     inkscape:window-x="1369"
     inkscape:window-y="177"
     inkscape:window-maximized="0"
     inkscape:current-layer="layer1" />
  <defs
     id="defs1">
    <linearGradient
       x1="0"
       y1="0"
       x2="1"
       y2="0"
       gradientUnits="userSpaceOnUse"
       gradientTransform="matrix(109.75197,-109.75197,-109.75197,-109.75197,880.34625,706.54608)"
       spreadMethod="pad"
       id="linearGradient114">
      <stop
         style="stop-opacity:1;stop-color:#57efff icc-color(sRGB IEC61966-2.1, 0.34117126, 0.9372406, 1);"
         offset="0"
         id="stop111" />
      <stop
         style="stop-opacity:1;stop-color:#57efff icc-color(sRGB IEC61966-2.1, 0.34117126, 0.9372406, 1);"
         offset="0.00000008"
         id="stop112" />
      <stop
         style="stop-opacity:1;stop-color:#7b66ff icc-color(sRGB IEC61966-2.1, 0.48234558, 0.3999939, 1);"
         offset="1"
         id="stop113" />
      <stop
         style="stop-opacity:1;stop-color:#7b66ff icc-color(sRGB IEC61966-2.1, 0.48234558, 0.3999939, 1);"
         offset="1"
         id="stop114" />
    </linearGradient>
    <linearGradient
       x1="0"
       y1="0"
       x2="1"
       y2="0"
       gradientUnits="userSpaceOnUse"
       gradientTransform="matrix(42.286316,-42.286316,-42.286316,-42.286316,913.47351,606.61163)"
       spreadMethod="pad"
       id="linearGradient123">
      <stop
         style="stop-opacity:1;stop-color:#57efff icc-color(sRGB IEC61966-2.1, 0.34117126, 0.9372406, 1);"
         offset="0"
         id="stop120" />
      <stop
         style="stop-opacity:1;stop-color:#57efff icc-color(sRGB IEC61966-2.1, 0.34117126, 0.9372406, 1);"
         offset="0.00000008"
         id="stop121" />
      <stop
         style="stop-opacity:1;stop-color:#7b66ff icc-color(sRGB IEC61966-2.1, 0.48234558, 0.3999939, 1);"
         offset="1"
         id="stop122" />
      <stop
         style="stop-opacity:1;stop-color:#7b66ff icc-color(sRGB IEC61966-2.1, 0.48234558, 0.3999939, 1);"
         offset="1"
         id="stop123" />
    </linearGradient>
    <linearGradient
       x1="0"
       y1="0"
       x2="1"
       y2="0"
       gradientUnits="userSpaceOnUse"
       gradientTransform="matrix(38.014812,-38.014812,-38.014812,-38.014812,903.04803,675.58844)"
       spreadMethod="pad"
       id="linearGradient135">
      <stop
         style="stop-opacity:1;stop-color:#57efff icc-color(sRGB IEC61966-2.1, 0.34117126, 0.9372406, 1);"
         offset="0"
         id="stop132" />
      <stop
         style="stop-opacity:1;stop-color:#57efff icc-color(sRGB IEC61966-2.1, 0.34117126, 0.9372406, 1);"
         offset="0.00000008"
         id="stop133" />
      <stop
         style="stop-opacity:1;stop-color:#7b66ff icc-color(sRGB IEC61966-2.1, 0.48234558, 0.3999939, 1);"
         offset="1"
         id="stop134" />
      <stop
         style="stop-opacity:1;stop-color:#7b66ff icc-color(sRGB IEC61966-2.1, 0.48234558, 0.3999939, 1);"
         offset="1"
         id="stop135" />
    </linearGradient>
  </defs>
  <g
     id="g5"
     transform="matrix(0.26458333,0,0,0.26458333,-302.10906,-870.25022)">
    <path
       id="path114"
       d="M 872.085,697.161 C 854.532,674.11 850.12,635.828 866.918,611.196 v 0 c 1.628,-2.388 2.628,-4.383 6.08,-3.559 v 0 l 13.616,8.957 c 1.117,1.338 0.68,4.341 -0.513,5.528 v 0 c -2.017,2.006 -5.6,-0.119 -8.543,-2.245 v 0 c -2.311,-1.67 -4.228,-3.338 -4.685,-3.008 v 0 c -11.269,20.204 -11.435,46.365 -0.229,66.54 v 0 c 0.895,0.201 3.013,-1.408 5.367,-3.018 v 0 c 3.862,-2.64 8.36,-5.28 9.149,0.078 v 0 c 0.739,5.032 -7.283,6.786 -10.459,9.324 v 0 c 10.459,16.245 33.808,30.359 53.369,30.301 v 0 c 0.643,-0.003 0.712,-0.037 1.123,-0.599 v 0 -11.556 c 0,-0.123 1.352,-1.877 1.481,-1.956 v 0 c 1.707,-1.029 6.223,-0.138 6.223,1.405 v 0 12.932 c 4.393,-0.793 8.834,-0.928 13.213,-1.92 v 0 c 16.258,-3.683 31.544,-14.016 41.166,-27.525 v 0 c -1.626,-2.59 -11.065,-6.336 -10.132,-9.637 v 0 c 2.332,-8.256 10.335,0.676 14.36,2.753 v 0 c 11.518,-20.137 11.368,-46.93 -0.014,-67.127 v 0 c -0.619,-0.14 -7.469,5.731 -9.943,6.043 v 0 c -4.114,0.518 -6.042,-3.365 -2.943,-6.284 v 0 c 1.785,-1.68 9.537,-6.657 11.906,-7.9 v 0 c 2.213,-1.161 3.966,-1.877 5.933,0.451 v 0 c 3.786,4.48 8.117,16.699 9.373,22.545 v 0 c 12.275,57.148 -32.114,96.783 -77.865,96.78 v 0 c -22.48,-0.002 -45.293,-9.573 -61.866,-31.338"
       transform="matrix(1.3333333,0,0,-1.3333333,0,4260.4667)"
       style="fill:url(#linearGradient114);stroke:none" />
    <path
       id="path123"
       d="m 929.258,606.088 c -10.465,-0.977 -20.217,-4.619 -28.039,-11.8 v 0 c -3.586,-3.292 -9.932,-9.841 -4.005,-13.877 v 0 h 74.562 c 7.515,6.071 -4.493,15.429 -9.757,18.58 v 0 c -8.26,4.946 -17.795,7.348 -27.384,7.348 v 0 c -1.793,0 -3.588,-0.084 -5.377,-0.251 m 7.739,-7.355 c 8.977,-0.437 19.778,-4.319 26.509,-10.325 v 0 c 0.366,-0.327 1.052,0.042 0.705,-1.258 v 0 H 905.33 c 6.959,8.21 21.146,12.096 31.667,11.583"
       transform="matrix(1.3333333,0,0,-1.3333333,0,4260.4667)"
       style="fill:url(#linearGradient123);stroke:none" />
    <path
       id="path135"
       d="m 902.027,668.868 21.758,-20.109 c -0.412,-3.93 -0.419,-8.589 2.735,-11.527 v 0 c 3.4,-3.169 11.164,-3.115 14.386,0.185 v 0 c 4.815,4.932 3.722,13.992 -2.616,17.086 v 0 c -2.32,1.132 -4.184,0.923 -6.173,0.713 v 0 c -1.143,-0.12 -2.327,-0.24 -3.662,-0.105 v 0 c -6.956,5.761 -13.882,13.28 -21.293,18.339 v 0 c -1.397,0.954 -2.67,1.379 -3.699,1.379 v 0 c -2.48,0 -3.532,-2.473 -1.436,-5.961"
       transform="matrix(1.3333333,0,0,-1.3333333,0,4260.4667)"
       style="fill:url(#linearGradient135);stroke:none" />
  </g>
  <g
     inkscape:label="Layer 1"
     inkscape:groupmode="layer"
     id="layer1"
     transform="translate(-32.279153,-142.08125)"
     style="opacity:0" />
</svg>
