<?xml version="1.0" encoding="UTF-8"?>
<svg id="Layer_1" xmlns="http://www.w3.org/2000/svg" xmlns:xlink="http://www.w3.org/1999/xlink" version="1.1" viewBox="0 0 171.2 200.9">
  <!-- Generator: Adobe Illustrator 29.5.1, SVG Export Plug-In . SVG Version: 2.1.0 Build 141)  -->
  <defs>
    <style>
      .st0 {
        fill: #ffd100;
      }

      .st1 {
        fill: url(#linear-gradient);
      }
    </style>
    <linearGradient id="linear-gradient" x1="24" y1="60.1" x2="147" y2="183.2" gradientUnits="userSpaceOnUse">
      <stop offset="0" stop-color="#57efff"/>
      <stop offset="1" stop-color="#7b66ff"/>
    </linearGradient>
  </defs>
  <path class="st1" d="M44.4,72.3c4.6,1,5.4,8.6-1.4,9.4s-25.6.7-29.5-.2c-3.4-.8-4.2-4.7-2.9-7.6L83.8.3c2.1-.8,4,.3,5.5,1.9l71.4,72.5c1,1.9.7,4.5-.9,5.9-3.2,2.7-22.9.3-28.2,1.1v15.5c0,2.7-7.3,4.5-8.5-.9s-.6-16.3-.1-19.3,1.8-4,3.2-4h19.9L85.6,11.6l-60.4,60.7c5.5.8,14.1-1.1,19.2,0ZM122.9,192.4H47.7v-14.1c0-2.6-7.4-5.1-8.5.2-.6,2.7-.6,15.7-.1,18.6s1.3,3.4,3.4,3.9h86.5s2-1.6,2-1.6l.6-50.6c-.9-5.6-7.7-3.9-8.6-.8v44.5Z"/>
  <polygon class="st0" points="83.8 107 114.9 107 63.9 175.7 73.7 128.7 44.8 128.7 92.1 58.6 83.8 107"/>
</svg>